<svg xmlns="http://www.w3.org/2000/svg" version="1.1" xmlns:xlink="http://www.w3.org/1999/xlink" xmlns:svgjs="http://svgjs.dev/svgjs" width="1000" height="1000" viewBox="0 0 1000 1000"><rect width="1000" height="1000" fill="#ffffff"></rect><g transform="matrix(0.7,0,0,0.7,150.13381625045412,255.54809716599192)"><svg viewBox="0 0 353 247" data-background-color="#0b022d" preserveAspectRatio="xMidYMid meet" height="699" width="1000" xmlns="http://www.w3.org/2000/svg" xmlns:xlink="http://www.w3.org/1999/xlink"><defs></defs><g id="tight-bounds" transform="matrix(1,0,0,1,-0.06748162344328534,-0.09999999999999432)"><svg viewBox="0 0 353.13495706928614 247.2" height="247.2" width="353.13495706928614"><g><svg viewBox="0 0 395.52 276.87019379623956" height="247.2" width="353.13495706928614"><g transform="matrix(1,0,0,1,0,166.53380842322014)"><svg viewBox="0 0 395.52 110.33638537301944" height="110.33638537301944" width="395.52"><g><svg viewBox="0 0 395.52 110.33638537301944" height="110.33638537301944" width="395.52"><g><svg viewBox="0 0 395.52 59.51017400204708" height="59.51017400204708" width="395.52"><g transform="matrix(1,0,0,1,0,0)"><svg width="395.52" viewBox="3.5 -36.349998474121094 244.22999572753906 36.75" height="59.51017400204708" data-palette-color="#f7fff7"><path d="M3.5 0L3.5-35.25 19.7-35.25Q25.45-35.25 28.65-32.35 31.85-29.45 31.85-24.25L31.85-24.25Q31.85-19.05 28.65-16.15 25.45-13.25 19.7-13.25L19.7-13.25 11.3-13.25 11.3 0 3.5 0ZM11.3-19.15L18.7-19.15Q24.55-19.15 24.55-24.2L24.55-24.2Q24.55-26.8 23.1-28.05 21.65-29.3 18.7-29.3L18.7-29.3 11.3-29.3 11.3-19.15ZM57.4-12.7L57.4-10.85 41.4-10.85Q41.75-7.9 43.32-6.58 44.9-5.25 47.8-5.25L47.8-5.25Q49.7-5.25 51.57-5.88 53.45-6.5 55-7.65L55-7.65 57-2.6Q55.2-1.2 52.62-0.4 50.05 0.4 47.45 0.4L47.45 0.4Q41.25 0.4 37.67-3.03 34.1-6.45 34.1-12.35L34.1-12.35Q34.1-16.1 35.65-19 37.2-21.9 39.95-23.53 42.7-25.15 46.2-25.15L46.2-25.15Q51.35-25.15 54.37-21.8 57.4-18.45 57.4-12.7L57.4-12.7ZM46.4-19.95Q44.25-19.95 42.97-18.57 41.7-17.2 41.4-14.6L41.4-14.6 51.05-14.6Q50.9-17.25 49.72-18.6 48.55-19.95 46.4-19.95L46.4-19.95ZM79.05-25.2L79.5-18.95 75.25-18.5Q72.09-18.2 70.8-16.73 69.5-15.25 69.5-12.8L69.5-12.8 69.5 0 61.95 0 61.95-24.55 69.2-24.55 69.2-20.4Q71.05-24.65 76.84-25.05L76.84-25.05 79.05-25.2ZM91.19 0.4Q87.79 0.4 84.97-0.38 82.14-1.15 80.09-2.6L80.09-2.6 82.09-7.8Q84.09-6.45 86.49-5.7 88.89-4.95 91.34-4.95L91.34-4.95Q93.09-4.95 94.07-5.53 95.04-6.1 95.04-7.1L95.04-7.1Q95.04-8 94.37-8.5 93.69-9 91.84-9.4L91.84-9.4 87.84-10.3Q84.29-11.1 82.62-12.78 80.94-14.45 80.94-17.35L80.94-17.35Q80.94-19.65 82.27-21.4 83.59-23.15 86.02-24.15 88.44-25.15 91.54-25.15L91.54-25.15Q94.19-25.15 96.69-24.35 99.19-23.55 101.19-22.1L101.19-22.1 99.19-17.1Q95.29-19.8 91.49-19.8L91.49-19.8Q89.74-19.8 88.74-19.2 87.74-18.6 87.74-17.5L87.74-17.5Q87.74-16.7 88.34-16.25 88.94-15.8 90.44-15.4L90.44-15.4 94.59-14.45Q98.34-13.6 100.07-11.88 101.79-10.15 101.79-7.2L101.79-7.2Q101.79-3.65 98.97-1.63 96.14 0.4 91.19 0.4L91.19 0.4ZM113.64 0L106.09 0 106.09-24.55 113.64-24.55 113.64 0ZM105.84-29.3L105.84-36.35 113.94-36.35 113.94-29.3 105.84-29.3ZM130.34-25.15Q135.84-25.15 138.46-22.55 141.09-19.95 141.09-14.5L141.09-14.5 141.09 0 133.94 0 133.94-3.65Q133.19-1.75 131.44-0.68 129.69 0.4 127.34 0.4L127.34 0.4Q124.84 0.4 122.81-0.6 120.79-1.6 119.61-3.4 118.44-5.2 118.44-7.4L118.44-7.4Q118.44-10.1 119.81-11.65 121.19-13.2 124.24-13.9 127.29-14.6 132.59-14.6L132.59-14.6 133.89-14.6 133.89-15.5Q133.89-17.7 132.94-18.6 131.99-19.5 129.64-19.5L129.64-19.5Q127.84-19.5 125.64-18.85 123.44-18.2 121.44-17.05L121.44-17.05 119.44-22.1Q121.54-23.4 124.61-24.28 127.69-25.15 130.34-25.15L130.34-25.15ZM128.99-4.8Q131.19-4.8 132.54-6.28 133.89-7.75 133.89-10.1L133.89-10.1 133.89-10.95 133.04-10.95Q128.99-10.95 127.36-10.3 125.74-9.65 125.74-7.95L125.74-7.95Q125.74-6.6 126.66-5.7 127.59-4.8 128.99-4.8L128.99-4.8ZM162.14-9.7L173.14-35.25 181.04-35.25 165.19 0 158.94 0 143.03-35.25 151.14-35.25 162.14-9.7ZM183.73 0L183.73-35.25 199.93-35.25Q205.68-35.25 208.88-32.35 212.08-29.45 212.08-24.25L212.08-24.25Q212.08-19.05 208.88-16.15 205.68-13.25 199.93-13.25L199.93-13.25 191.53-13.25 191.53 0 183.73 0ZM191.53-19.15L198.93-19.15Q204.78-19.15 204.78-24.2L204.78-24.2Q204.78-26.8 203.33-28.05 201.88-29.3 198.93-29.3L198.93-29.3 191.53-29.3 191.53-19.15ZM240.43-12.9L240.43-35.25 247.73-35.25 247.73 0 241.93 0 224.38-22.45 224.38 0 217.13 0 217.13-35.25 222.88-35.25 240.43-12.9Z" opacity="1" transform="matrix(1,0,0,1,0,0)" fill="#000000" class="undefined-text-0" data-fill-palette-color="primary" id="text-0"></path></svg></g></svg></g><g transform="matrix(1,0,0,1,0,73.55909783975434)"><svg viewBox="0 0 395.52 36.777287533265095" height="36.777287533265095" width="395.52"><g transform="matrix(1,0,0,1,0,0)"><svg width="395.52" viewBox="2.5 -35.70000076293945 480.7200012207031 44.70000076293945" height="36.777287533265095" data-palette-color="#f7fff7"><path d="M20.05 0.45Q14.7 0.45 10.73-1.8 6.75-4.05 4.63-8.15 2.5-12.25 2.5-17.65L2.5-17.65Q2.5-23.05 4.63-27.15 6.75-31.25 10.73-33.48 14.7-35.7 20.05-35.7L20.05-35.7Q23.55-35.7 26.75-34.63 29.95-33.55 32-31.65L32-31.65 29.5-26.1Q27.2-27.85 24.93-28.65 22.65-29.45 20.2-29.45L20.2-29.45Q15.5-29.45 12.98-26.45 10.45-23.45 10.45-17.65L10.45-17.65Q10.45-11.85 12.98-8.83 15.5-5.8 20.2-5.8L20.2-5.8Q22.65-5.8 24.93-6.6 27.2-7.4 29.5-9.15L29.5-9.15 32-3.6Q29.95-1.7 26.75-0.63 23.55 0.45 20.05 0.45L20.05 0.45ZM132.87-8.9L139.27-24.5 146.67-24.5 131.87 9 124.22 9 128.92-1.35 118.82-24.5 126.67-24.5 132.87-8.9ZM250.64-25.15Q253.84-25.15 256.29-23.6 258.74-22.05 260.11-19.18 261.49-16.3 261.49-12.5L261.49-12.5Q261.49-8.7 260.11-5.78 258.74-2.85 256.26-1.23 253.79 0.4 250.64 0.4L250.64 0.4Q248.09 0.4 246.04-0.68 243.99-1.75 242.89-3.65L242.89-3.65 242.89 0 235.44 0 235.44-35.25 242.99-35.25 242.99-21.25Q244.09-23.1 246.11-24.13 248.14-25.15 250.64-25.15L250.64-25.15ZM248.44-5.35Q251.09-5.35 252.54-7.23 253.99-9.1 253.99-12.5L253.99-12.5Q253.99-15.85 252.54-17.63 251.09-19.4 248.44-19.4L248.44-19.4Q245.79-19.4 244.34-17.57 242.89-15.75 242.89-12.4L242.89-12.4Q242.89-9 244.34-7.18 245.79-5.35 248.44-5.35L248.44-5.35ZM374.66-12.7L374.66-10.85 358.66-10.85Q359.01-7.9 360.58-6.58 362.16-5.25 365.06-5.25L365.06-5.25Q366.96-5.25 368.83-5.88 370.71-6.5 372.26-7.65L372.26-7.65 374.26-2.6Q372.46-1.2 369.88-0.4 367.31 0.4 364.71 0.4L364.71 0.4Q358.51 0.4 354.93-3.03 351.36-6.45 351.36-12.35L351.36-12.35Q351.36-16.1 352.91-19 354.46-21.9 357.21-23.53 359.96-25.15 363.46-25.15L363.46-25.15Q368.61-25.15 371.63-21.8 374.66-18.45 374.66-12.7L374.66-12.7ZM363.66-19.95Q361.51-19.95 360.23-18.57 358.96-17.2 358.66-14.6L358.66-14.6 368.31-14.6Q368.16-17.25 366.98-18.6 365.81-19.95 363.66-19.95L363.66-19.95ZM482.77-25.2L483.22-18.95 478.97-18.5Q475.82-18.2 474.52-16.73 473.22-15.25 473.22-12.8L473.22-12.8 473.22 0 465.67 0 465.67-24.55 472.92-24.55 472.92-20.4Q474.77-24.65 480.57-25.05L480.57-25.05 482.77-25.2Z" opacity="1" transform="matrix(1,0,0,1,0,0)" fill="#000000" class="undefined-text-1" data-fill-palette-color="secondary" id="text-1"></path></svg></g></svg></g></svg></g></svg></g><g transform="matrix(1,0,0,1,121.51755770724355,0)"><svg viewBox="0 0 152.48488458551287 152.48488458551287" height="152.48488458551287" width="152.48488458551287"><g><svg></svg></g><g id="icon-0"><svg viewBox="0 0 152.48488458551287 152.48488458551287" height="152.48488458551287" width="152.48488458551287"><g><path d="M45.745 152.485c-25.265 0-45.745-20.481-45.745-45.746v-60.994c0-25.265 20.481-45.745 45.745-45.745h60.994c25.265 0 45.745 20.481 45.746 45.745v60.994c0 25.265-20.481 45.745-45.746 45.746z" fill="#000000" data-fill-palette-color="accent"></path></g><g transform="matrix(1,0,0,1,40.60759857594119,30.49697691710258)"><svg viewBox="0 0 71.2696874336305 91.49093075130772" height="91.49093075130772" width="71.2696874336305"><g><svg xmlns:x="http://ns.adobe.com/Extensibility/1.0/" xmlns:i="http://ns.adobe.com/AdobeIllustrator/10.0/" xmlns:graph="http://ns.adobe.com/Graphs/1.0/" xmlns="http://www.w3.org/2000/svg" xmlns:xlink="http://www.w3.org/1999/xlink" version="1.1" x="0" y="0" viewBox="16.735000610351562 6.649999618530273 67.26499938964844 86.3499984741211" enable-background="new 0 0 100 100" xml:space="preserve" height="91.49093075130772" width="71.2696874336305" class="icon-x-0" data-fill-palette-color="quaternary" id="x-0"><path d="M16.735 45.917V93H84V45.917H16.735zM46.262 80.753L35.721 70.214l4.396-4.395 6.145 6.144L61.24 56.983l4.393 4.395L46.262 80.753z" fill="#0b022d" data-fill-palette-color="quaternary"></path><path d="M36.913 30.194c0.039-2.816-0.004-13.453 13.453-13.453S63.78 27.422 63.818 30.194v10.09h10.093V30.192c0 0-0.003-23.542-23.543-23.542-23.539 0-23.544 23.542-23.544 23.542v10.093h10.089V30.194z" fill="#0b022d" data-fill-palette-color="quaternary"></path></svg></g></svg></g></svg></g></svg></g><g></g></svg></g></svg><rect width="353.13495706928614" height="247.2" fill="none" stroke="none" visibility="hidden"></rect></g></svg></g></svg>